mtllib cube.mtl

# v
v -0.5 -0.5  0.5
v  0.5 -0.5  0.5
v  0.5 -0.5 -0.5   
v -0.5 -0.5 -0.5  
v -0.5  0.5  0.5   
v  0.5  0.5  0.5   
v  0.5  0.5 -0.5   
v -0.5  0.5 -0.5   

# (vt)
vt 0.0 0.0
vt 1.0 0.0
vt 1.0 1.0
vt 0.0 1.0

# vn
vn  0.0  0.0  1.0   #
vn  0.0  0.0 -1.0   # 
vn  0.0 -1.0  0.0   # 
vn  0.0  1.0  0.0   # 
vn -1.0  0.0  0.0   # 
vn  1.0  0.0  0.0   # 

usemtl cube_material

# (Z+)
f 1/1/1 2/2/1 6/3/1
f 1/1/1 6/3/1 5/4/1

# (X+)
f 2/1/6 3/2/6 7/3/6
f 2/1/6 7/3/6 6/4/6

# (Z-)
f 3/1/2 4/2/2 8/3/2
f 3/1/2 8/3/2 7/4/2

# (X-)
f 4/1/5 1/2/5 5/3/5
f 4/1/5 5/3/5 8/4/5

# (Y-)
f 1/1/3 4/2/3 3/3/3
f 1/1/3 3/3/3 2/4/3

# (Y+)
f 5/1/4 6/2/4 7/3/4
f 5/1/4 7/3/4 8/4/4
